<svg height="512" viewBox="0 0 64 64" width="512" xmlns="http://www.w3.org/2000/svg"><g id="Icons"><g><g><path d="m52 22v-14c0-2.209-1.791-4-4-4h-28.695c2.834 1.992 4.695 5.28 4.695 9 0 6.065-4.935 11-11 11-.338 0-.67-.021-1-.051v32.051c0 2.209 1.791 4 4 4h32c2.209 0 4-1.791 4-4v-2h-14v-32z" fill="#505050"/></g><g><path d="m23.574 10c.271.955.426 1.959.426 3 0 2.657-.947 5.097-2.521 7h26.521v-10z" fill="#64c8f0"/></g><g><path d="m22 32h-4c-1.105 0-2-.895-2-2v-4c0-1.105.895-2 2-2h4c1.105 0 2 .895 2 2v4c0 1.105-.895 2-2 2z" fill="#fab400"/></g><g><path d="m34 32h-4c-1.105 0-2-.895-2-2v-4c0-1.105.895-2 2-2h4c1.105 0 2 .895 2 2v4c0 1.105-.895 2-2 2z" fill="#fab400"/></g><g><path d="m22 44h-4c-1.105 0-2-.895-2-2v-4c0-1.105.895-2 2-2h4c1.105 0 2 .895 2 2v4c0 1.105-.895 2-2 2z" fill="#fab400"/></g><g><path d="m34 44h-4c-1.105 0-2-.895-2-2v-4c0-1.105.895-2 2-2h4c1.105 0 2 .895 2 2v4c0 1.105-.895 2-2 2z" fill="#fab400"/></g><g><path d="m22 56h-4c-1.105 0-2-.895-2-2v-4c0-1.105.895-2 2-2h4c1.105 0 2 .895 2 2v4c0 1.105-.895 2-2 2z" fill="#fab400"/></g><g><path d="m34 56h-4c-1.105 0-2-.895-2-2v-4c0-1.105.895-2 2-2h4c1.105 0 2 .895 2 2v4c0 1.105-.895 2-2 2z" fill="#fab400"/></g><g><path d="m40 12v6h6v-6zm4 4h-2v-2h2z" fill="#288cb4"/></g><g><path d="m32 12v6h6v-6zm4 4h-2v-2h2z" fill="#288cb4"/></g><g><path d="m24 12v6h6v-6zm4 4h-2v-2h2z" fill="#288cb4"/></g><g><path d="m56 24h-16v28h20v-24z" fill="#f0f0f0"/></g><g><path d="m40 24h2v28h-2z" fill="#d2d2d2"/></g><g><path d="m60 28h-4v-4z" fill="#d2d2d2"/></g><g><path d="m52 30.857v-1.428h-1.333v-1.429h-1.334v1.429h-1.333v4.285h2.667v1.429h-2.667v1.428h1.333v1.429h1.334v-1.429h1.333v-4.285h-2.667v-1.429z" fill="#fab400"/></g><g><path d="m44 41.5h12v1h-12z" fill="#505050"/></g><g><path d="m44 43.5h12v1h-12z" fill="#505050"/></g><g><path d="m44 45.5h12v1h-12z" fill="#505050"/></g><g><g><path d="m19.387 4.062c.201-.031.403-.062.613-.062h-.695c.028.02.054.042.082.062z" fill="#3c3c3c"/></g><g><path d="m16 56v-32.426c-.955.271-1.959.426-3 .426-.338 0-.67-.021-1-.051v32.051c0 2.209 1.791 4 4 4h4c-2.209 0-4-1.791-4-4z" fill="#3c3c3c"/></g></g><g><path d="m13 22c-4.971 0-9-4.029-9-9 0-4.971 4.029-9 9-9 4.971 0 9 4.029 9 9 0 4.971-4.029 9-9 9z" fill="#3cc8b4"/></g><g><path d="m6 13c0-4.632 3.501-8.443 8-8.941-.329-.037-.662-.059-1-.059-4.971 0-9 4.029-9 9s4.029 9 9 9c.338 0 .671-.022 1-.059-4.499-.498-8-4.309-8-8.941z" fill="#1eaa96"/></g><g><path d="m18 12-6 6-4-4 2-2 2 2 4-4z" fill="#f0f0f0"/></g></g></g></svg>