<svg height="512" viewBox="0 0 512 512" width="512" xmlns="http://www.w3.org/2000/svg"><g id="Flat"><g fill="#fbb8b0"><path d="m199.977 346.889a51.731 51.731 0 0 0 28.706 25.871 59.746 59.746 0 0 0 39.119-4.732l3.593-1.757-66.785-136.543-49.269 24.1z"/><path d="m185.577 353.863-40.371-84.169-41.206 20.154 40.422 82.644a60 60 0 0 0 80.261 27.536l3.593-1.757-5.145-10.52a67.755 67.755 0 0 1 -37.554-33.888z"/></g><path d="m151.4 300.763 259.34 73a10 10 0 0 0 12.335-6.917l40.325-143.246-264 .4z" fill="#63c521"/><path d="m376.548 338.9a8.039 8.039 0 0 1 -2.334-.347l-190.214-56.901 4.668-15.3 183.047 54.713a32.227 32.227 0 0 1 27.392-17.048l16.893-60.134 15.461 4.117-18.619 66.609a7.991 7.991 0 0 1 -9.426 5.76 16 16 0 0 0 -19.049 12.223 8 8 0 0 1 -7.819 6.306z" fill="#9fdc6e"/><path d="m463.395 223.6-264 .4-25.012 40h277.639z" fill="#5ab31e"/><rect fill="#9fdc6e" height="224" rx="10" transform="matrix(-1 0 0 -1 576 272)" width="400" x="88" y="24"/><g fill="#fbfef9"><path d="m425.371 224h-214.733v-16h205.362a32.036 32.036 0 0 1 32-32v-88a32.058 32.058 0 0 1 -30.988-24h-266.024a32.118 32.118 0 0 1 -22.988 22.987v90.026a32.054 32.054 0 0 1 24 30.987h-16a16.019 16.019 0 0 0 -16-16 8 8 0 0 1 -8-8v-104a8 8 0 0 1 8-8 16.019 16.019 0 0 0 16-16 8 8 0 0 1 8-8h280a8 8 0 0 1 8 8 16 16 0 0 0 21.334 15.086 8 8 0 0 1 10.666 7.543v106.742a8 8 0 0 1 -10.666 7.543 16 16 0 0 0 -20.421 20.418 8 8 0 0 1 -7.542 10.668z"/><circle cx="288" cy="136" r="48"/><path d="m384 112h48v16h-48z"/></g><path d="m152 488v-152l49.1-79.939a60 60 0 0 0 -15.6-81.27l-9.5-6.791-64 80h-14.6a10 10 0 0 1 -10-10v-166h-15a20 20 0 0 0 -19.616 16.078l-28.784 143.922 24 112v144z" fill="#ffd4cf"/></g></svg>