<svg id="flat" height="512" viewBox="0 0 512 512" width="512" xmlns="http://www.w3.org/2000/svg"><path d="m488 488-72-368h-320l-72 368z" fill="#ffc431"/><path d="m216 488h-192l2.44-12.45 69.56-355.55h48l69.56 355.55z" fill="#ffa100"/><path d="m216 488h-12.5l-83.5-69.59-83.5 69.59h-12.5l2.44-12.45 85.56-71.3v-84.25h16v84.25l85.56 71.3z" fill="#f78e00"/><path d="m112 120h16v144h-16z" fill="#f78e00"/><path d="m112 280h16v16h-16z" fill="#f78e00"/><g fill="#ffe28f"><circle cx="328" cy="272" r="32"/><path d="m264 336h40v16h-40z"/><path d="m320 336h80v16h-80z"/><path d="m248 368h96v16h-96z"/><path d="m360 368h64v16h-64z"/></g><path d="m312 120h-16v-48a40 40 0 0 0 -80 0v48h-16v-48a56 56 0 0 1 112 0z" fill="#ffcc4d"/><path d="m352 184h-16v-112a40 40 0 0 0 -80 0v112h-16v-112a56 56 0 0 1 112 0z" fill="#ffe28f"/><path d="m224 176h48v16h-48z" fill="#ffa100"/><path d="m320 176h48v16h-48z" fill="#ffa100"/></svg>