<svg height="512" viewBox="0 0 128 128" width="512" xmlns="http://www.w3.org/2000/svg"><g><path d="m64 5.303h62.25v62.25h-62.25z" fill="#fff06d"/><path d="m107.375 36.428-12.25-10.008-12.25 10.008v-31.125h24.5z" fill="#54528e"/><path d="m104.25 51.556h14v7.997h-14z" fill="#ffbf2d"/><g><path d="m109.876 108.95h-41.613l3.946-5.95a10 10 0 0 0 -2.08-13.333l-21.804-17.467h-34.575v30.562h16.013l30 19.935h58.113v-5.747a8 8 0 0 0 -8-8z" fill="#fed9b6"/><path d="m1.75 59.795h12v55.373h-12z" fill="#54528e"/><path d="m64 107.283a1.738 1.738 0 0 1 -1.093-.384l-18.453-14.783a1.75 1.75 0 1 1 2.189-2.731l18.451 14.782a1.75 1.75 0 0 1 -1.094 3.116z" fill="#febb9c"/></g></g></svg>